<?xml version="1.0" encoding="UTF-8" standalone="no"?>
<!-- Created with Inkscape (http://www.inkscape.org/) -->

<svg
   width="72.80191mm"
   height="2.3467865mm"
   viewBox="0 0 72.80191 2.3467865"
   version="1.1"
   id="svg32700"
   xmlns="http://www.w3.org/2000/svg"
   xmlns:svg="http://www.w3.org/2000/svg">
  <defs
     id="defs32697" />
  <g
     id="layer1"
     transform="translate(-71.824861,-175.53558)">
    <path
       d="m 99.697187,176.85774 c -0.01446,-0.0356 -0.02893,-0.0713 -0.04339,-0.1069 -0.01411,0.0127 -0.04022,0.0247 -0.04092,0.0381 -0.0014,0.0353 0.0078,0.0716 0.0127,0.10725 0.02328,-0.0123 0.04692,-0.025 0.07161,-0.0384 m -1.713795,0.12029 c -0.02187,0.0113 -0.04339,0.0222 -0.06526,0.0339 0.02893,0.0145 0.06103,0.0434 0.06526,-0.0339 m -0.565502,0.0194 c 0.0046,-0.007 -0.03563,-0.066 -0.06174,-0.0737 -0.07232,-0.0212 -0.110773,0.0296 -0.110067,0.1023 3.53e-4,0.0314 0.03351,0.0628 0.06174,0.11183 0.04127,-0.0497 0.08114,-0.0914 0.110067,-0.1404 m -4.185003,0.21413 c -0.310797,-0.21484 -0.527403,-0.34149 -0.807508,0.0843 0.286808,-0.0296 0.503061,0.0674 0.807508,-0.0843 m -6.909505,0.0141 c -0.0092,-0.0166 -0.01446,-0.0413 -0.02787,-0.0487 -0.0769,-0.0409 -0.113947,0.01 -0.146403,0.0688 0.05821,-0.006 0.116417,-0.0134 0.174273,-0.0201 m -0.560211,-0.0215 c -0.01094,-0.0159 -0.02364,-0.0462 -0.03281,-0.0452 -0.03351,0.005 -0.06562,0.0198 -0.09843,0.0307 0.01129,0.0155 0.02434,0.0448 0.03422,0.0437 0.03281,-0.004 0.06491,-0.0183 0.09701,-0.0293 m -9.272059,-0.617 c -0.02575,-0.0138 -0.0508,-0.0314 -0.07796,-0.0388 -0.0095,-0.003 -0.02469,0.0208 -0.03739,0.0321 0.02752,0.0166 0.05468,0.0332 0.08184,0.0494 0.01199,-0.0152 0.02258,-0.0289 0.03351,-0.0427 m -1.382183,0.0102 c -0.01693,-0.0236 -0.04304,-0.0392 -0.06738,-0.0589 -0.0092,0.0399 -0.03034,0.079 -0.02293,0.10972 0.01587,0.0614 0.0515,0.0621 0.08043,0.006 0.0085,-0.0166 0.01729,-0.0466 0.0099,-0.0568 m 69.517681,0.60254 c -0.008,0.26458 -0.13053,0.5013 -0.4699,0.62865 -0.40675,0.15311 -0.72566,-0.0684 -1.08479,-0.0758 -1.81786,-0.0377 -3.64031,0.008 -5.45183,-0.18485 -1.52823,-0.16334 -3.06458,-0.25259 -4.58646,-0.1457 -1.26894,0.0889 -2.53577,-0.0765 -3.804,0.10442 -0.57539,0.0819 -1.17969,-0.12029 -1.77271,-0.13829 -2.35233,-0.0716 -4.70465,-0.14111 -7.05768,-0.17039 -1.13947,-0.0141 -2.28,0.1009 -3.41982,0.0921 -2.30964,-0.0176 -4.61892,0.005 -6.92821,-0.16581 -1.42169,-0.10548 -2.85608,0.0123 -4.28166,-0.0561 -1.19909,-0.0572 -2.37843,0.12171 -3.56694,0.19085 -0.62618,0.037 -1.37689,0.0684 -1.84114,-0.14358 -0.503064,-0.2293 -0.676983,0.23707 -0.987075,0.13582 -0.397228,-0.12947 -0.789517,-0.0473 -1.174044,-0.002 -0.23495,0.0279 -0.252236,-0.0988 -0.302684,-0.23989 -0.104422,0.28681 -0.312561,0.28857 -0.560211,0.28787 -0.773289,-0.003 -1.54693,0.0226 -2.319866,0.0543 -0.286103,0.0113 -0.613834,0.25612 -0.777875,-0.23354 -0.0088,-0.0268 -0.193675,-0.0275 -0.201789,-0.004 -0.243417,0.75882 -0.850195,0.18485 -1.264003,0.39511 -0.291042,0.14781 -0.842433,0.121 -1.08338,-0.0497 -0.2286,-0.16228 -0.382764,-0.37712 -0.689681,-0.33232 -0.192264,0.0279 -0.396875,-0.0949 -0.500944,0.26564 -0.05891,0.20497 -0.435328,0.16122 -0.58032,0.0589 -0.327377,-0.23002 -0.524933,-0.29916 -0.945091,-0.0836 -0.217664,0.11147 -0.776817,0.30021 -1.175103,-0.004 0.02293,-0.20109 0.256469,0.0272 0.34043,-0.18592 -0.395816,-0.01 -0.772583,-0.004 -1.147233,-0.0335 -0.240594,-0.019 -0.262819,0.41345 -0.568678,0.2801 -0.113594,-0.0501 -0.251177,-0.009 -0.294569,-0.17638 -0.506942,0.26705 -1.181453,0.29562 -1.521531,0.0434 -0.642408,-0.47625 -1.125008,-0.16299 -1.686277,-0.0134 -0.183445,0.049 -0.391937,-0.0885 -0.549981,-0.1464 -1.163814,-0.4251 -2.356556,-0.25788 -3.53695,-0.29281 -0.149578,-0.005 -0.477661,-0.18556 -0.460022,0.26247 0.0011,0.0272 -0.123472,0.0917 -0.12947,0.084 -0.41275,-0.55315 -1.065741,0.1524 -1.471788,-0.33373 -0.213078,-0.25576 -0.405342,-0.0152 -0.585964,0 -0.902406,0.0751 -1.799167,-0.10124 -2.699103,-0.0346 -0.23495,0.0176 -0.462492,-0.0367 -0.516819,0.3496 -0.04339,0.30974 -0.233187,0.0572 -0.36195,0.0536 -0.144639,-0.004 -0.262467,0.0663 -0.160514,-0.2152 0.109361,-0.30127 -0.242006,-0.23213 -0.355953,-0.37077 -0.130881,-0.15981 -0.336903,-0.3108 -0.245533,-0.53763 0.0829,-0.20567 0.328436,-0.12806 0.47378,-0.0833 0.635353,0.19474 1.267531,0.0776 1.902178,0.0381 0.312914,-0.019 0.614891,0.0723 0.922161,0.12383 0.942622,0.15663 1.891947,0.0173 2.830689,-0.0734 1.014236,-0.0977 2.02953,-0.21837 3.03918,-0.10266 1.283759,0.14746 2.579864,0.24906 3.849511,0.12171 1.247775,-0.12559 2.4765,0.0437 3.712634,-0.0138 0.8382,-0.0395 1.661936,-0.28751 2.506838,-0.21449 0.851253,0.0734 1.690864,-0.0603 2.535414,-0.13687 1.044222,-0.0952 2.083858,-0.21167 3.142897,-0.0843 1.105606,0.13335 2.233084,-0.2166 3.333749,-0.01 1.03787,0.19544 2.05987,-0.0596 3.09175,-0.0226 0.95355,0.0346 1.95403,0.12806 2.93793,-0.0766 0.5842,-0.12171 1.21638,0.0318 1.83092,0.0339 2.25954,0.007 4.52225,0.19897 6.77721,0.11148 2.35126,-0.0914 4.70429,-0.0145 7.05344,-0.16651 0.36089,-0.0233 0.72813,0.11642 1.09396,0.13405 1.30352,0.0614 2.60632,-0.15522 3.9109,-0.0208 0.46531,0.048 0.92886,0.12947 1.39523,0.15064 1.85808,0.085 3.71652,0.0402 5.57565,0.0208 2.2472,-0.024 4.46829,0.42651 6.70666,0.53481 1.23966,0.0603 2.44899,0.2607 3.66219,0.48789 0.20884,0.0392 0.502,0.0744 0.49424,0.32985"
       style="fill:#000000;fill-opacity:1;fill-rule:nonzero;stroke:none;stroke-width:0.352778"
       id="path4412" />
  </g>
</svg>
